# xmcd CD database file
#
# Track frame offsets:
#	150
#	18355
#	34888
#	51543
#	68874
#	89562
#	107210
#	126320
#	146193
#	161580
#	188060
#	204464
#	208040
#	227983
#	248734
#	268569
#	291218
#	311596
#	329007
#
# Disc length: 4643 seconds
#
# Revision: 0
# Processed by: cddbd v1.5.1PL2 Copyright (c) Steve Scherf et al.
# Submitted via: CDex 1.51
#
DISCID=2e122113
DTITLE=Lucie Silvas - Breathe In
DYEAR=2006
DGENRE=Blues
TTITLE0=Don't look back
TTITLE1=The Game Is Won
TTITLE2=Last Man Standing
TTITLE3=Forget Me Not
TTITLE4=Breath In
TTITLE5=Nothing Else Matters
TTITLE6=Without You
TTITLE7=What You're Made Of
TTITLE8=Twisting The Chain
TTITLE9=No Defence
TTITLE10=The Longer We're Apart
TTITLE11=Like You Love Me
TTITLE12=Ouverture (Live at Studio 24, Hilversum Holland)
TTITLE13=Don't Look Back (Live at Studio 24, Hilversum Holland)
TTITLE14=What You're Made Of (Live at Studio 24, Hilversum Holland)
TTITLE15=Breathe In (Live at Studio 24, Hilversum Holland)
TTITLE16=Nothing Else Matters (Live at Studio 24, Hilversum Holland)
TTITLE17=Twisting The Chain (Live at Studio 24, Hilversum Holland)
TTITLE18=No Defence (Live at Studio 24, Hilversum Holland)
EXTD=YEAR: 2006
EXTT0=
EXTT1=
EXTT2=
EXTT3=
EXTT4=
EXTT5=
EXTT6=
EXTT7=
EXTT8=
EXTT9=
EXTT10=
EXTT11=
EXTT12=
EXTT13=
EXTT14=
EXTT15=
EXTT16=
EXTT17=
EXTT18=
PLAYORDER=
